<svg xmlns="http://www.w3.org/2000/svg" xmlns:xlink="http://www.w3.org/1999/xlink" width="1366" zoomAndPan="magnify" viewBox="0 0 1024.5 576" height="768" preserveAspectRatio="xMidYMid meet" version="1.0"><defs><g/><clipPath id="id1"><path d="M 587.566406 212.335938 L 729.128906 212.335938 L 729.128906 323.277344 L 587.566406 323.277344 Z M 587.566406 212.335938 " clip-rule="nonzero"/></clipPath></defs><g fill="#f6be00" fill-opacity="1"><g transform="translate(120.126606, 321.150765)"><g><path d="M 44.390625 -80.546875 C 52.984375 -80.546875 60.710938 -78.144531 67.578125 -73.34375 C 74.453125 -68.539062 79.320312 -62.257812 82.1875 -54.5 L 55.390625 -54.5 C 52.097656 -56.945312 48.429688 -58.171875 44.390625 -58.171875 C 39.410156 -58.171875 35.191406 -56.441406 31.734375 -52.984375 C 28.285156 -49.523438 26.5625 -45.304688 26.5625 -40.328125 C 26.5625 -35.359375 28.285156 -31.125 31.734375 -27.625 C 35.191406 -24.125 39.410156 -22.375 44.390625 -22.375 C 49.109375 -22.375 53.238281 -24.019531 56.78125 -27.3125 L 82.578125 -27.3125 C 79.796875 -19.21875 74.925781 -12.640625 67.96875 -7.578125 C 61.007812 -2.523438 53.148438 0 44.390625 0 C 33.253906 0 23.765625 -3.914062 15.921875 -11.75 C 8.085938 -19.59375 4.171875 -29.125 4.171875 -40.34375 C 4.171875 -51.46875 8.085938 -60.945312 15.921875 -68.78125 C 23.765625 -76.625 33.253906 -80.546875 44.390625 -80.546875 Z M 44.390625 -80.546875 "/></g></g></g><g fill="#f6be00" fill-opacity="1"><g transform="translate(206.744856, 321.150765)"><g><path d="M 15.984375 -68.84375 C 23.867188 -76.726562 33.375 -80.671875 44.5 -80.671875 C 55.632812 -80.671875 65.140625 -76.726562 73.015625 -68.84375 C 80.898438 -60.96875 84.84375 -51.460938 84.84375 -40.328125 C 84.84375 -29.203125 80.898438 -19.695312 73.015625 -11.8125 C 65.140625 -3.9375 55.632812 0 44.5 0 C 33.375 0 23.867188 -3.9375 15.984375 -11.8125 C 8.109375 -19.695312 4.171875 -29.203125 4.171875 -40.328125 C 4.171875 -51.460938 8.109375 -60.96875 15.984375 -68.84375 Z M 57.21875 -53.046875 C 53.71875 -56.546875 49.476562 -58.296875 44.5 -58.296875 C 39.53125 -58.296875 35.296875 -56.546875 31.796875 -53.046875 C 28.304688 -49.546875 26.5625 -45.3125 26.5625 -40.34375 C 26.5625 -35.445312 28.304688 -31.25 31.796875 -27.75 C 35.296875 -24.257812 39.53125 -22.515625 44.5 -22.515625 C 49.476562 -22.515625 53.71875 -24.257812 57.21875 -27.75 C 60.71875 -31.25 62.46875 -35.445312 62.46875 -40.34375 C 62.46875 -45.3125 60.71875 -49.546875 57.21875 -53.046875 Z M 57.21875 -53.046875 "/></g></g></g><g fill="#f6be00" fill-opacity="1"><g transform="translate(295.892108, 321.150765)"><g><path d="M 72.96875 -80.671875 C 81.226562 -80.671875 88.347656 -77.695312 94.328125 -71.75 C 100.316406 -65.8125 103.3125 -58.710938 103.3125 -50.453125 L 103.3125 0 L 80.796875 0 L 80.796875 -50.453125 C 80.796875 -52.554688 80.015625 -54.390625 78.453125 -55.953125 C 76.898438 -57.515625 75.066406 -58.296875 72.953125 -58.296875 C 70.847656 -58.296875 69.015625 -57.515625 67.453125 -55.953125 C 65.898438 -54.390625 65.125 -52.554688 65.125 -50.453125 L 65.125 0 L 42.734375 0 L 42.734375 -50.453125 C 42.734375 -52.554688 41.953125 -54.390625 40.390625 -55.953125 C 38.835938 -57.515625 37.007812 -58.296875 34.90625 -58.296875 C 32.707031 -58.296875 30.847656 -57.515625 29.328125 -55.953125 C 27.816406 -54.390625 27.0625 -52.554688 27.0625 -50.453125 L 27.0625 0 L 4.671875 11.125 L 4.671875 -50.453125 C 4.671875 -58.796875 7.644531 -65.914062 13.59375 -71.8125 C 19.539062 -77.71875 26.644531 -80.671875 34.90625 -80.671875 C 41.976562 -80.671875 48.34375 -78.394531 54 -73.84375 C 59.476562 -78.394531 65.800781 -80.671875 72.96875 -80.671875 Z M 72.96875 -80.671875 "/></g></g></g><g fill="#f6be00" fill-opacity="1"><g transform="translate(403.880411, 321.150765)"><g><path d="M 16.046875 -68.78125 C 23.890625 -76.625 33.332031 -80.546875 44.375 -80.546875 C 55.425781 -80.546875 64.847656 -76.625 72.640625 -68.78125 C 80.441406 -60.945312 84.34375 -51.46875 84.34375 -40.34375 C 84.34375 -38.488281 84.21875 -36.675781 83.96875 -34.90625 L 27.3125 -34.90625 C 28.488281 -31.195312 30.632812 -28.179688 33.75 -25.859375 C 36.875 -23.535156 40.421875 -22.375 44.390625 -22.375 C 47.335938 -22.375 50.078125 -23.050781 52.609375 -24.40625 L 81.1875 -24.40625 C 78.0625 -17.070312 73.171875 -11.171875 66.515625 -6.703125 C 59.859375 -2.234375 52.484375 0 44.390625 0 C 33.335938 0 23.890625 -3.914062 16.046875 -11.75 C 8.210938 -19.59375 4.296875 -29.125 4.296875 -40.34375 C 4.296875 -51.46875 8.210938 -60.945312 16.046875 -68.78125 Z M 28.453125 -48.3125 L 60.1875 -48.3125 C 58.675781 -51.257812 56.503906 -53.640625 53.671875 -55.453125 C 50.847656 -57.265625 47.753906 -58.171875 44.390625 -58.171875 C 40.929688 -58.171875 37.789062 -57.265625 34.96875 -55.453125 C 32.144531 -53.640625 29.972656 -51.257812 28.453125 -48.3125 Z M 28.453125 -48.3125 "/></g></g></g><g fill="#ffffff" fill-opacity="1"><g transform="translate(492.647756, 321.150765)"><g><path d="M 73.140625 -11.8125 C 65.265625 -3.9375 55.765625 0 44.640625 0 C 33.515625 0 24.007812 -3.9375 16.125 -11.8125 C 8.238281 -19.695312 4.296875 -29.203125 4.296875 -40.328125 C 4.296875 -51.460938 8.238281 -60.96875 16.125 -68.84375 C 24.007812 -76.726562 33.515625 -80.671875 44.640625 -80.671875 C 50.878906 -80.671875 56.863281 -79.28125 62.59375 -76.5 L 62.59375 -91.8125 L 84.96875 -103.0625 L 84.96875 -40.34375 C 84.96875 -29.207031 81.023438 -19.695312 73.140625 -11.8125 Z M 31.921875 -27.625 C 35.421875 -24.125 39.65625 -22.375 44.625 -22.375 C 49.601562 -22.375 53.84375 -24.125 57.34375 -27.625 C 60.84375 -31.125 62.59375 -35.359375 62.59375 -40.328125 C 62.59375 -45.304688 60.84375 -49.546875 57.34375 -53.046875 C 53.84375 -56.546875 49.601562 -58.296875 44.625 -58.296875 C 39.65625 -58.296875 35.421875 -56.546875 31.921875 -53.046875 C 28.429688 -49.546875 26.6875 -45.304688 26.6875 -40.328125 C 26.6875 -35.359375 28.429688 -31.125 31.921875 -27.625 Z M 31.921875 -27.625 "/></g></g></g><g fill="#ffffff" fill-opacity="1"><g transform="translate(582.291338, 321.150765)"><g/></g></g><g fill="#ffffff" fill-opacity="1"><g transform="translate(632.744881, 321.150765)"><g/></g></g><g fill="#ffffff" fill-opacity="1"><g transform="translate(683.198425, 321.150765)"><g/></g></g><g fill="#ffffff" fill-opacity="1"><g transform="translate(733.643528, 321.150765)"><g><path d="M 4.8125 -40.34375 C 4.8125 -51.46875 8.75 -60.96875 16.625 -68.84375 C 24.507812 -76.726562 34.015625 -80.671875 45.140625 -80.671875 L 45.140625 -58.171875 C 40.171875 -58.171875 35.9375 -56.421875 32.4375 -52.921875 C 28.9375 -49.421875 27.1875 -45.226562 27.1875 -40.34375 L 27.1875 0 L 4.8125 11.25 Z M 4.8125 -40.34375 "/></g></g></g><g fill="#ffffff" fill-opacity="1"><g transform="translate(782.832572, 321.150765)"><g><path d="M 27.3125 -80.671875 L 27.3125 0 L 4.9375 0 L 4.9375 -69.421875 Z M 9.03125 -100.078125 C 11.019531 -102.066406 13.40625 -103.0625 16.1875 -103.0625 C 18.96875 -103.0625 21.328125 -102.066406 23.265625 -100.078125 C 25.203125 -98.097656 26.171875 -95.71875 26.171875 -92.9375 C 26.171875 -90.15625 25.203125 -87.773438 23.265625 -85.796875 C 21.328125 -83.816406 18.96875 -82.828125 16.1875 -82.828125 C 13.40625 -82.828125 11.019531 -83.816406 9.03125 -85.796875 C 7.050781 -87.773438 6.0625 -90.15625 6.0625 -92.9375 C 6.0625 -95.71875 7.050781 -98.097656 9.03125 -100.078125 Z M 9.03125 -100.078125 "/></g></g></g><g fill="#ffffff" fill-opacity="1"><g transform="translate(814.950877, 321.150765)"><g><path d="M 16.125 -68.84375 C 24.007812 -76.726562 33.515625 -80.671875 44.640625 -80.671875 C 55.765625 -80.671875 65.265625 -76.726562 73.140625 -68.84375 C 81.023438 -60.96875 84.96875 -51.46875 84.96875 -40.34375 L 84.96875 6.953125 L 62.59375 -4.171875 C 56.78125 -1.390625 50.796875 0 44.640625 0 C 33.515625 0 24.007812 -3.9375 16.125 -11.8125 C 8.238281 -19.695312 4.296875 -29.203125 4.296875 -40.328125 C 4.296875 -51.460938 8.238281 -60.96875 16.125 -68.84375 Z M 57.34375 -53.046875 C 53.84375 -56.546875 49.601562 -58.296875 44.625 -58.296875 C 39.65625 -58.296875 35.421875 -56.546875 31.921875 -53.046875 C 28.429688 -49.546875 26.6875 -45.304688 26.6875 -40.328125 C 26.6875 -35.359375 28.429688 -31.125 31.921875 -27.625 C 35.421875 -24.125 39.65625 -22.375 44.625 -22.375 C 49.601562 -22.375 53.84375 -24.125 57.34375 -27.625 C 60.84375 -31.125 62.59375 -35.359375 62.59375 -40.328125 C 62.59375 -45.304688 60.84375 -49.546875 57.34375 -53.046875 Z M 57.34375 -53.046875 "/></g></g></g><g clip-path="url(#id1)"><path fill="#ffffff" d="M 691.648438 232.429688 C 694.230469 232.429688 694.230469 228.4375 691.648438 228.4375 C 689.070312 228.4375 689.066406 232.429688 691.648438 232.429688 Z M 626.6875 231.8125 C 629.265625 231.8125 629.269531 227.820312 626.6875 227.820312 C 624.109375 227.820312 624.105469 231.8125 626.6875 231.8125 Z M 616.589844 246.980469 C 619.164062 246.980469 619.167969 242.988281 616.589844 242.988281 C 614.007812 242.988281 614.003906 246.980469 616.589844 246.980469 Z M 645.804688 238.867188 C 648.378906 238.867188 648.390625 234.875 645.804688 234.875 C 643.226562 234.875 643.222656 238.867188 645.804688 238.867188 Z M 652.640625 222.371094 C 655.222656 222.371094 655.222656 218.378906 652.640625 218.378906 C 650.066406 218.378906 650.0625 222.371094 652.640625 222.371094 Z M 687.144531 247.753906 C 689.722656 247.753906 689.730469 243.761719 687.144531 243.761719 C 684.566406 243.761719 684.5625 247.753906 687.144531 247.753906 Z M 674.246094 226.703125 C 676.824219 226.703125 676.828125 222.710938 674.246094 222.710938 C 671.664062 222.710938 671.660156 226.703125 674.246094 226.703125 Z M 658.347656 216.324219 C 626.199219 216.324219 600.042969 232.371094 600.042969 252.097656 L 600.042969 253.8125 C 600.042969 255.800781 601.667969 257.421875 603.667969 257.421875 L 713.035156 257.421875 C 715.03125 257.421875 716.660156 255.800781 716.660156 253.8125 L 716.660156 252.097656 C 716.660156 232.371094 690.5 216.324219 658.351562 216.324219 Z M 713.035156 261.40625 L 603.664062 261.40625 C 599.460938 261.40625 596.039062 258 596.039062 253.8125 L 596.039062 252.097656 C 596.039062 241.300781 602.644531 231.214844 614.640625 223.703125 C 626.347656 216.375 641.867188 212.335938 658.347656 212.335938 C 674.832031 212.335938 690.355469 216.375 702.058594 223.703125 C 714.054688 231.214844 720.65625 241.300781 720.65625 252.097656 L 720.65625 253.8125 C 720.65625 258 717.238281 261.40625 713.035156 261.40625 Z M 723.535156 268.285156 C 723.800781 268.082031 723.710938 268.160156 723.414062 268.355469 C 722.996094 268.628906 722.570312 268.894531 722.128906 269.136719 C 720.816406 269.851562 719.386719 270.378906 717.90625 270.617188 C 715.707031 270.976562 713.464844 270.648438 711.457031 269.675781 C 709.1875 268.578125 707.421875 266.761719 705.074219 265.765625 C 700.195312 263.683594 694.285156 264.699219 690.308594 268.222656 C 690.265625 268.257812 690.199219 268.300781 690.113281 268.355469 C 689.695312 268.628906 689.269531 268.894531 688.828125 269.136719 C 687.519531 269.851562 686.082031 270.378906 684.605469 270.617188 C 682.40625 270.976562 680.164062 270.648438 678.160156 269.675781 C 675.886719 268.578125 674.117188 266.761719 671.777344 265.765625 C 666.894531 263.683594 660.984375 264.699219 657.007812 268.222656 C 656.964844 268.257812 656.898438 268.300781 656.8125 268.355469 C 656.394531 268.628906 655.964844 268.894531 655.523438 269.136719 C 654.210938 269.851562 652.78125 270.378906 651.304688 270.617188 C 649.105469 270.976562 646.859375 270.648438 644.851562 269.675781 C 642.582031 268.578125 640.816406 266.761719 638.476562 265.765625 C 633.589844 263.683594 627.679688 264.699219 623.707031 268.222656 C 623.660156 268.257812 623.597656 268.300781 623.511719 268.355469 C 623.089844 268.628906 622.664062 268.894531 622.222656 269.136719 C 620.914062 269.851562 619.476562 270.378906 618.003906 270.617188 C 615.800781 270.976562 613.558594 270.648438 611.550781 269.675781 C 609.285156 268.578125 607.515625 266.761719 605.171875 265.765625 C 600.257812 263.671875 594.300781 264.707031 590.328125 268.285156 C 588.410156 270.015625 591.253906 272.824219 593.160156 271.105469 C 594.375 270.015625 596.417969 269.09375 598.1875 268.777344 C 603.34375 267.851562 606.335938 271.832031 610.652344 273.632812 C 615.886719 275.808594 622.082031 274.582031 626.464844 271.105469 C 627.679688 270.015625 629.722656 269.09375 631.488281 268.777344 C 636.648438 267.851562 639.640625 271.832031 643.957031 273.632812 C 649.191406 275.808594 655.382812 274.582031 659.765625 271.105469 C 660.980469 270.015625 663.023438 269.09375 664.792969 268.777344 C 669.949219 267.851562 672.941406 271.832031 677.257812 273.632812 C 682.492188 275.808594 688.683594 274.582031 693.070312 271.105469 C 694.285156 270.015625 696.320312 269.09375 698.09375 268.777344 C 703.253906 267.851562 706.246094 271.832031 710.5625 273.632812 C 715.789062 275.808594 721.988281 274.582031 726.371094 271.105469 C 728.386719 269.507812 725.535156 266.703125 723.535156 268.285156 Z M 594.398438 281.972656 C 592.839844 281.972656 591.570312 283.238281 591.570312 284.792969 L 591.570312 287.386719 C 591.570312 288.941406 592.839844 290.207031 594.398438 290.207031 L 722.296875 290.207031 C 723.859375 290.207031 725.128906 288.941406 725.128906 287.386719 L 725.128906 284.792969 C 725.128906 283.238281 723.859375 281.972656 722.296875 281.972656 Z M 722.296875 294.191406 L 594.398438 294.191406 C 590.632812 294.191406 587.566406 291.144531 587.566406 287.386719 L 587.566406 284.792969 C 587.566406 281.039062 590.632812 277.984375 594.398438 277.984375 L 722.296875 277.984375 C 726.066406 277.984375 729.132812 281.039062 729.132812 284.792969 L 729.132812 287.386719 C 729.132812 291.144531 726.066406 294.191406 722.296875 294.191406 Z M 603.664062 302.109375 C 601.664062 302.109375 600.039062 303.726562 600.039062 305.714844 L 600.039062 308.210938 C 600.039062 314.320312 605.03125 319.292969 611.164062 319.292969 L 705.527344 319.292969 C 711.667969 319.292969 716.652344 314.320312 716.652344 308.210938 L 716.652344 305.714844 C 716.652344 303.726562 715.027344 302.109375 713.03125 302.109375 Z M 705.53125 323.277344 L 611.167969 323.277344 C 602.824219 323.277344 596.039062 316.515625 596.039062 308.210938 L 596.039062 305.714844 C 596.039062 301.53125 599.460938 298.125 603.667969 298.125 L 713.035156 298.125 C 717.238281 298.125 720.660156 301.53125 720.660156 305.714844 L 720.660156 308.210938 C 720.660156 316.515625 713.875 323.277344 705.53125 323.277344 " fill-opacity="1" fill-rule="nonzero"/></g></svg>