<svg id="Camada_1" data-name="Camada 1" xmlns="http://www.w3.org/2000/svg" xmlns:xlink="http://www.w3.org/1999/xlink" viewBox="0 0 1034.16 160.09"><defs><style>.cls-1{fill:none;}.cls-2{fill:#f6be00;}.cls-3{fill:#fff;}.cls-4{clip-path:url(#clip-path);}</style><clipPath id="clip-path" transform="translate(-19.69 -14.59)"><rect class="cls-1" x="637.38" y="14.59" width="188.75" height="147.92"/></clipPath></defs><path class="cls-2" d="M73.32,52.29a52.67,52.67,0,0,1,30.91,9.6A52,52,0,0,1,123.71,87H88a24,24,0,0,0-14.66-4.89,23.58,23.58,0,0,0-23.77,23.79,23.24,23.24,0,0,0,6.89,16.94,22.86,22.86,0,0,0,16.88,7,23.52,23.52,0,0,0,16.52-6.59h34.39a53.19,53.19,0,0,1-19.48,26.32,52.16,52.16,0,0,1-31.43,10.1,51.72,51.72,0,0,1-38-15.67q-15.67-15.67-15.67-38.12A51.65,51.65,0,0,1,35.36,68,51.69,51.69,0,0,1,73.32,52.29Z" transform="translate(-19.69 -14.59)"/><path class="cls-2" d="M150.93,67.89a53.72,53.72,0,0,1,76,0,51.8,51.8,0,0,1,15.77,38,51.83,51.83,0,0,1-15.77,38,53.76,53.76,0,0,1-76,0,51.85,51.85,0,0,1-15.75-38A51.82,51.82,0,0,1,150.93,67.89Zm55,21.06A23.93,23.93,0,0,0,165,105.89a24,24,0,0,0,40.87,16.79,23.82,23.82,0,0,0,0-33.73Z" transform="translate(-19.69 -14.59)"/><path class="cls-2" d="M345.77,52.12A39,39,0,0,1,374.25,64a38.59,38.59,0,0,1,12,28.4v67.27h-30V92.41a10.45,10.45,0,0,0-20.89,0v67.27H305.46V92.41A10.68,10.68,0,0,0,295,82a9.93,9.93,0,0,0-7.43,3.13,10.18,10.18,0,0,0-3,7.33v67.27l-29.86,14.83V92.41A40.48,40.48,0,0,1,295,52.12a39.55,39.55,0,0,1,25.46,9.1A38.41,38.41,0,0,1,345.77,52.12Z" transform="translate(-19.69 -14.59)"/><path class="cls-2" d="M413.86,68a53.23,53.23,0,0,1,75.46,0,51.79,51.79,0,0,1,15.61,37.92,52.33,52.33,0,0,1-.5,7.25H428.88a23.52,23.52,0,0,0,8.59,12.06,23.13,23.13,0,0,0,14.18,4.65,22.82,22.82,0,0,0,11-2.71h38.11a52.75,52.75,0,0,1-19.57,23.6A53.29,53.29,0,0,1,413.86,144q-15.66-15.67-15.66-38.12A51.68,51.68,0,0,1,413.86,68ZM430.4,95.26h42.32A24.4,24.4,0,0,0,464,85.74a22.52,22.52,0,0,0-12.38-3.62,22.8,22.8,0,0,0-12.56,3.62A24.62,24.62,0,0,0,430.4,95.26Z" transform="translate(-19.69 -14.59)"/><path class="cls-3" d="M608.34,143.93a53.74,53.74,0,0,1-76,0,51.83,51.83,0,0,1-15.77-38,51.8,51.8,0,0,1,15.77-38,51.83,51.83,0,0,1,38-15.77,54.15,54.15,0,0,1,23.94,5.56V37.26l29.84-15v83.63A51.85,51.85,0,0,1,608.34,143.93Zm-55-21.08a23.95,23.95,0,0,0,40.89-16.94,23.94,23.94,0,1,0-40.89,16.94Z" transform="translate(-19.69 -14.59)"/><path class="cls-3" d="M838.57,105.89a51.79,51.79,0,0,1,15.75-38,51.83,51.83,0,0,1,38-15.77v30a23.9,23.9,0,0,0-23.94,23.77v53.79l-29.83,15Z" transform="translate(-19.69 -14.59)"/><path class="cls-3" d="M934.15,52.12V159.68H904.32V67.12ZM909.78,26.24a13,13,0,0,1,9.54-4,12.7,12.7,0,0,1,9.44,4,13.14,13.14,0,0,1,3.87,9.52,13.15,13.15,0,0,1-3.87,9.53,12.71,12.71,0,0,1-9.44,4,13.5,13.5,0,0,1-13.5-13.48A13,13,0,0,1,909.78,26.24Z" transform="translate(-19.69 -14.59)"/><path class="cls-3" d="M962.06,67.89a53.69,53.69,0,0,1,76,0,51.77,51.77,0,0,1,15.77,38V169L1024,154.12a54.85,54.85,0,0,1-23.94,5.56,51.85,51.85,0,0,1-38-15.75,51.83,51.83,0,0,1-15.77-38A51.8,51.8,0,0,1,962.06,67.89ZM1017,89a23.93,23.93,0,0,0-40.88,17A23.94,23.94,0,1,0,1017,89Z" transform="translate(-19.69 -14.59)"/><g class="cls-4"><path class="cls-3" d="M776.16,41.39c3.44,0,3.44-5.33,0-5.33S772.72,41.39,776.16,41.39Zm-86.62-.83c3.44,0,3.45-5.32,0-5.32S686.1,40.56,689.54,40.56ZM676.08,60.79c3.43,0,3.44-5.33,0-5.33S672.63,60.79,676.08,60.79ZM715,50c3.44,0,3.45-5.32,0-5.32S711.59,50,715,50Zm9.12-22c3.44,0,3.44-5.32,0-5.32S720.71,28,724.15,28Zm46,33.85c3.44,0,3.45-5.32,0-5.32S766.71,61.82,770.15,61.82ZM753,33.75c3.44,0,3.45-5.32,0-5.32S749.51,33.75,753,33.75ZM731.76,19.91c-42.87,0-77.74,21.4-77.74,47.7V69.9a4.82,4.82,0,0,0,4.83,4.81H804.67a4.83,4.83,0,0,0,4.84-4.81V67.61c0-26.3-34.88-47.7-77.75-47.7ZM804.67,80H658.85A10.16,10.16,0,0,1,648.68,69.9V67.61c0-14.4,8.81-27.84,24.8-37.86,15.61-9.77,36.3-15.16,58.28-15.16S774.43,20,790,29.75c16,10,24.8,23.46,24.8,37.86V69.9A10.16,10.16,0,0,1,804.67,80Zm14,9.17c.36-.27.24-.16-.16.1-.56.36-1.12.72-1.71,1a17.65,17.65,0,0,1-5.63,2,14.42,14.42,0,0,1-8.6-1.25c-3-1.47-5.38-3.89-8.51-5.22a19,19,0,0,0-19.69,3.28l-.26.18c-.56.36-1.12.72-1.71,1a17.65,17.65,0,0,1-5.63,2,14.42,14.42,0,0,1-8.6-1.25c-3-1.47-5.39-3.89-8.51-5.22A19,19,0,0,0,730,89.11l-.26.18c-.56.36-1.13.72-1.72,1a17.6,17.6,0,0,1-5.62,2,14.44,14.44,0,0,1-8.61-1.25c-3-1.47-5.38-3.89-8.5-5.22a19,19,0,0,0-19.69,3.28l-.26.18c-.56.36-1.13.72-1.72,1a17.6,17.6,0,0,1-5.62,2,14.44,14.44,0,0,1-8.61-1.25c-3-1.47-5.38-3.89-8.5-5.22a19,19,0,0,0-19.8,3.36c-2.55,2.31,1.24,6.06,3.78,3.76a14.81,14.81,0,0,1,6.7-3.1c6.88-1.23,10.87,4.07,16.62,6.47,7,2.9,15.24,1.27,21.09-3.37a14.82,14.82,0,0,1,6.69-3.1c6.88-1.23,10.87,4.07,16.63,6.47,7,2.9,15.23,1.27,21.08-3.37a14.81,14.81,0,0,1,6.7-3.1c6.88-1.23,10.87,4.07,16.62,6.47,7,2.9,15.23,1.27,21.08-3.37a14.81,14.81,0,0,1,6.7-3.1c6.88-1.23,10.87,4.07,16.63,6.47,7,2.9,15.23,1.27,21.07-3.37C825.14,90.82,821.34,87.08,818.67,89.19ZM646.49,107.44a3.77,3.77,0,0,0-3.77,3.76v3.46a3.76,3.76,0,0,0,3.77,3.76H817a3.77,3.77,0,0,0,3.78-3.76V111.2a3.77,3.77,0,0,0-3.78-3.76ZM817,123.74H646.49a9.11,9.11,0,0,1-9.11-9.08V111.2a9.1,9.1,0,0,1,9.11-9.07H817a9.11,9.11,0,0,1,9.12,9.07v3.46A9.11,9.11,0,0,1,817,123.74ZM658.85,134.29A4.83,4.83,0,0,0,654,139.1v3.33a14.83,14.83,0,0,0,14.84,14.77H794.66a14.82,14.82,0,0,0,14.84-14.77V139.1a4.83,4.83,0,0,0-4.83-4.81Zm135.82,28.23H668.85a20.16,20.16,0,0,1-20.17-20.09V139.1A10.16,10.16,0,0,1,658.85,129H804.67a10.16,10.16,0,0,1,10.17,10.12v3.33a20.16,20.16,0,0,1-20.17,20.09" transform="translate(-19.69 -14.59)"/></g></svg>